<?xml version="1.0" encoding="UTF-8"?>
<svg width="1419px" height="357px" viewBox="0 0 1419 357" version="1.1" xmlns="http://www.w3.org/2000/svg" xmlns:xlink="http://www.w3.org/1999/xlink">
    <!-- Generator: Sketch 43.2 (39069) - http://www.bohemiancoding.com/sketch -->
    <title>Group 6</title>
    <desc>Created with Sketch.</desc>
    <defs></defs>
    <g id="faq/about" stroke="none" stroke-width="1" fill="none" fill-rule="evenodd">
        <g id="Group-6" transform="translate(1.000000, -1.000000)">
            <g id="Group-4" transform="translate(196.000000, 21.000000)" stroke="#2DD7C9" stroke-width="1.2" stroke-linecap="round">
                <polyline id="Path-7" stroke-linejoin="round" transform="translate(17.962345, 11.515098) rotate(25.000000) translate(-17.962345, -11.515098) " points="16.0649707 7.78579139 19.8597197 11.5150985 16.0649707 15.2444056"></polyline>
                <path d="M15.1777109,0.814814815 L5.7037037,15.3390369" id="Path-3"></path>
                <polyline id="Path-7-Copy-16" stroke-linejoin="round" transform="translate(3.295679, 4.181765) scale(-1, 1) rotate(-25.000000) translate(-3.295679, -4.181765) " points="1.39830407 0.45245806 5.19305299 4.18176516 1.39830407 7.91107227"></polyline>
            </g>
            <polyline id="Path-7-Copy-3" stroke="#807D83" stroke-width="2" stroke-linecap="round" stroke-linejoin="round" transform="translate(1155.328596, 66.576877) scale(-1, 1) translate(-1155.328596, -66.576877) " points="1153 62 1157.65719 66.5768769 1153 71.1537538"></polyline>
            <polyline id="Path-7-Copy-15" stroke="#807D83" stroke-width="2" stroke-linecap="round" stroke-linejoin="round" points="1173 62 1177.65719 66.5768769 1173 71.1537538"></polyline>
            <g id="Group" transform="translate(419.258601, 163.353684) rotate(45.000000) translate(-419.258601, -163.353684) translate(414.758601, 158.853684)" stroke="#2796DB" stroke-width="1.2" stroke-linecap="round" stroke-linejoin="round">
                <path d="M8.25943805,4.83007201 L-5.68434189e-14,4.83007231" id="Path-7-Copy" transform="translate(4.129719, 4.830072) rotate(-315.000000) translate(-4.129719, -4.830072) "></path>
                <path d="M8.25943805,4.83007201 L-5.68434189e-14,4.83007231" id="Path-7-Copy-14" transform="translate(4.129719, 4.830072) rotate(-360.000000) translate(-4.129719, -4.830072) "></path>
                <path d="M8.25943805,4.83007201 L-5.68434189e-14,4.83007231" id="Path-7-Copy-2" transform="translate(4.129719, 4.830072) scale(-1, 1) rotate(-315.000000) translate(-4.129719, -4.830072) "></path>
                <path d="M4.12971888,8.95979119 L4.12971917,0.700353135" id="Path-7-Copy-13"></path>
            </g>
            <ellipse id="Oval" fill="#22D3C3" cx="1106.77281" cy="266.170208" rx="2" ry="2.00061146"></ellipse>
            <ellipse id="Oval-Copy-3" fill="#EBB430" cx="1076.5" cy="132.500764" rx="2.5" ry="2.50076432"></ellipse>
            <ellipse id="Oval-Copy" fill="#EBB430" cx="272.98429" cy="200.51147" rx="2" ry="2.00061146"></ellipse>
            <polyline id="Path-7-Copy-12" stroke="#6DCDB1" stroke-width="2" stroke-linecap="round" stroke-linejoin="round" transform="translate(383.625655, 68.923513) rotate(-315.000000) translate(-383.625655, -68.923513) " points="378.296412 63.157142 376.097121 66.697034 388.751102 74.6898848 391.15419 71.0682337"></polyline>
            <path d="M538.384745,202.321526 L532.882772,207.763846" id="Path-7-Copy-4" stroke="#EF8421" stroke-width="2" stroke-linecap="round" stroke-linejoin="round" transform="translate(535.633759, 205.042686) rotate(-315.000000) translate(-535.633759, -205.042686) "></path>
            <g id="Group" transform="translate(1278.363961, 6.363961) rotate(45.000000) translate(-1278.363961, -6.363961) translate(1273.863961, 1.863961)" stroke="#2796DB" stroke-width="1.2" stroke-linecap="round" stroke-linejoin="round">
                <path d="M8.25943805,4.83007201 L-5.68434189e-14,4.83007231" id="Path-7-Copy" transform="translate(4.129719, 4.830072) rotate(-315.000000) translate(-4.129719, -4.830072) "></path>
                <path d="M8.25943805,4.83007201 L-5.68434189e-14,4.83007231" id="Path-7-Copy-14" transform="translate(4.129719, 4.830072) rotate(-360.000000) translate(-4.129719, -4.830072) "></path>
                <path d="M8.25943805,4.83007201 L-5.68434189e-14,4.83007231" id="Path-7-Copy-2" transform="translate(4.129719, 4.830072) scale(-1, 1) rotate(-315.000000) translate(-4.129719, -4.830072) "></path>
                <path d="M4.12971888,8.95979119 L4.12971917,0.700353135" id="Path-7-Copy-13"></path>
            </g>
            <polyline id="Path-7-Copy-6" stroke="#B54A91" stroke-width="2" stroke-linecap="round" stroke-linejoin="round" transform="translate(157.114699, 194.214933) scale(-1, 1) translate(-157.114699, -194.214933) " points="154.786103 189.638056 159.443295 194.214933 154.786103 198.79181"></polyline>
            <polyline id="Path-7-Copy-8" stroke="#B01F63" stroke-width="2" stroke-linecap="round" stroke-linejoin="round" transform="translate(1251.683883, 167.596525) scale(-1, 1) rotate(45.000000) translate(-1251.683883, -167.596525) " points="1249.35529 163.019648 1254.01248 167.596525 1249.35529 172.173402"></polyline>
            <g id="Group-Copy-3" transform="translate(64.634878, 128.509837) rotate(45.000000) translate(-64.634878, -128.509837) translate(60.634878, 124.509837)" stroke="#2796DB" stroke-width="2" stroke-linecap="round" stroke-linejoin="round">
                <path d="M8.25943805,3.83007201 L0,3.83007231" id="Path-7-Copy" transform="translate(4.129719, 3.830072) rotate(-315.000000) translate(-4.129719, -3.830072) "></path>
                <path d="M8.25943805,3.83007201 L0,3.83007231" id="Path-7-Copy-2" transform="translate(4.129719, 3.830072) scale(-1, 1) rotate(-315.000000) translate(-4.129719, -3.830072) "></path>
            </g>
            <path d="M582.620379,14.1482322 L577.118405,19.5905518" id="Path-7-Copy" stroke="#B01F63" stroke-width="2" stroke-linecap="round" stroke-linejoin="round" transform="translate(579.869392, 16.869392) rotate(-315.000000) translate(-579.869392, -16.869392) "></path>
            <polyline id="Path-7-Copy-11" stroke="#B54A91" stroke-width="2" stroke-linecap="round" stroke-linejoin="round" transform="translate(266.307289, 80.185646) rotate(-315.000000) translate(-266.307289, -80.185646) " points="268.652182 75.0081612 263.150208 80.4504808 269.46437 85.3631309"></polyline>
            <g id="Group-Copy-2" transform="translate(1262.656854, 320.656854) rotate(45.000000) translate(-1262.656854, -320.656854) translate(1258.656854, 316.656854)" stroke="#6DCDB1" stroke-width="2" stroke-linecap="round" stroke-linejoin="round">
                <path d="M8.25943805,3.83007201 L-1.8189894e-12,3.83007231" id="Path-7-Copy" transform="translate(4.129719, 3.830072) rotate(-315.000000) translate(-4.129719, -3.830072) "></path>
                <path d="M8.25943805,3.83007201 L-1.8189894e-12,3.83007231" id="Path-7-Copy-2" transform="translate(4.129719, 3.830072) scale(-1, 1) rotate(-315.000000) translate(-4.129719, -3.830072) "></path>
            </g>
            <ellipse id="Oval-Copy-2" fill="#2796DB" cx="3.0515257" cy="352.841577" rx="2.60500002" ry="2.60579644"></ellipse>
            <path d="M904.627191,139 L893,156.825182" id="Path-3" stroke="#2DD7C9" stroke-width="2" stroke-linecap="round"></path>
            <path d="M1415.63671,43.4983615 L1410.13474,48.9406811" id="Path-7-Copy-4" stroke="#EF8421" stroke-width="2" stroke-linecap="round" stroke-linejoin="round" transform="translate(1412.885722, 46.219521) rotate(-315.000000) translate(-1412.885722, -46.219521) "></path>
        </g>
    </g>
</svg>